<?xml version="1.0" encoding="iso-8859-1"?>
<!-- Uploaded to: SVG Repo, www.svgrepo.com, Generator: SVG Repo Mixer Tools -->
<svg height="800px" width="800px" version="1.1" id="Layer_1" xmlns="http://www.w3.org/2000/svg" xmlns:xlink="http://www.w3.org/1999/xlink" 
	 viewBox="0 0 512.002 512.002" xml:space="preserve">
<path style="fill:#FF3F62;" d="M345.942,282.303c-12.007,12.89-35.432,11.642-50.847-1.691
	c-15.452-13.357-18.531-32.458-8.16-43.621c5.445-5.454,35.389-32.688,58.307-63.883c24.202-30.198,41.379-64.357,50.965-60.646
	c9.353,3.163,9.381,46.465-4.789,86.361C378.889,239.369,352.163,276.507,345.942,282.303z"/>
<path style="fill:#FF0C38;" d="M317.701,225.38c12.017-3.967,74.678-33.316,76.234-34.158c-0.784,2.541-1.623,5.078-2.519,7.603
	c-12.527,40.544-39.253,77.683-45.474,83.479c-12.007,12.89-35.432,11.642-50.847-1.691c-5.818-5.03-9.881-10.874-12.134-16.802
	C283.551,260.932,284.573,236.318,317.701,225.38z"/>
<path style="fill:#FF728B;" d="M357.179,316.291c-16.207,6.903-37.106-3.752-45.778-22.196
	c-8.696-18.481-3.751-37.186,10.259-43.176c7.191-2.772,45.614-15.497,79.226-34.696c34.381-17.765,63.951-42.005,71.203-34.721
	c7.261,6.689-10.3,46.27-39.451,76.973C404.725,290.437,365.219,313.521,357.179,316.291z"/>
<path style="fill:#FF3F62;" d="M443.463,246.044c-3.391,4.234-7.006,8.41-10.825,12.432c-27.914,31.962-67.42,55.046-75.46,57.816
	c-16.207,6.903-37.106-3.751-45.778-22.196c-8.696-18.481-3.751-37.186,10.259-43.176
	C323.027,250.393,436.887,246.805,443.463,246.044z"/>
<path style="fill:#FFA5B5;" d="M344.338,346.89c-17.613-0.27-32.39-18.489-32.829-38.865c-0.446-20.42,11.665-35.508,26.9-35.296
	c7.697,0.385,47.979,4.349,86.489,0.446c38.632-2.282,75.494-12.434,79.166-2.833c3.922,9.061-28.193,38.108-67.297,54.335
	C398.285,342.559,352.809,347.622,344.338,346.89z"/>
<path style="fill:#FF3F62;" d="M166.061,282.303c12.007,12.89,35.432,11.642,50.847-1.691c15.452-13.357,18.531-32.458,8.16-43.621
	c-5.445-5.454-35.389-32.688-58.307-63.883c-24.202-30.198-41.379-64.357-50.964-60.646c-9.353,3.163-9.381,46.465,4.789,86.361
	C133.114,239.369,159.839,276.507,166.061,282.303z"/>
<path style="fill:#FF0C38;" d="M194.302,225.38c-12.017-3.967-74.678-33.316-76.234-34.158c0.784,2.541,1.623,5.078,2.519,7.603
	c12.527,40.544,39.253,77.683,45.474,83.479c12.007,12.89,35.432,11.642,50.847-1.691c5.818-5.03,9.881-10.874,12.134-16.802
	C228.452,260.932,227.43,236.318,194.302,225.38z"/>
<path style="fill:#FF728B;" d="M154.823,316.291c16.207,6.903,37.106-3.752,45.778-22.196c8.696-18.481,3.751-37.186-10.259-43.176
	c-7.191-2.772-45.614-15.497-79.226-34.696c-34.381-17.765-63.951-42.005-71.203-34.721c-7.261,6.689,10.3,46.27,39.451,76.973
	C107.278,290.437,146.783,313.521,154.823,316.291z"/>
<path style="fill:#FF3F62;" d="M68.539,246.044c3.391,4.234,7.006,8.41,10.825,12.432c27.914,31.962,67.42,55.046,75.46,57.816
	c16.207,6.903,37.106-3.751,45.778-22.196c8.696-18.481,3.751-37.186-10.259-43.176C188.975,250.393,75.116,246.805,68.539,246.044z
	"/>
<path style="fill:#FFA5B5;" d="M167.665,346.89c17.613-0.27,32.39-18.489,32.829-38.865c0.446-20.42-11.665-35.508-26.9-35.296
	c-7.697,0.385-47.979,4.349-86.489,0.446c-38.632-2.282-75.494-12.434-79.166-2.833c-3.922,9.061,28.193,38.108,67.297,54.335
	C113.718,342.559,159.193,347.622,167.665,346.89z"/>
<path style="fill:#FFBCAB;" d="M379.889,322.405c0,68.422-55.467,77.484-123.887,77.484s-123.887-9.064-123.887-77.484
	s55.467-132.643,123.887-132.643S379.889,253.983,379.889,322.405z"/>
<g>
	<path style="fill:#FF9478;" d="M156.986,322.405c0-64.223,48.87-124.744,111.451-131.929c-4.091-0.469-8.238-0.715-12.437-0.715
		c-68.422,0-123.887,64.221-123.887,132.643S187.58,399.888,256,399.888c4.198,0,8.346-0.034,12.437-0.115
		C205.856,398.553,156.986,386.628,156.986,322.405z"/>
	<path style="fill:#FF9478;" d="M287.499,234.978c-10.127-4.776-20.725-7.197-31.498-7.197c-4.199,0-7.604-3.403-7.604-7.604
		s3.404-7.604,7.604-7.604c13.033,0,25.812,2.91,37.984,8.648c3.799,1.791,5.431,6.325,3.635,10.12
		C295.203,236.448,288.547,235.471,287.499,234.978z"/>
	<path style="fill:#FF9478;" d="M309.957,250.405c-1.625-1.522-3.305-2.99-4.995-4.365c-3.257-2.649-3.751-7.439-1.102-10.697
		c2.648-3.259,7.439-3.752,10.697-1.103c1.965,1.598,3.914,3.302,5.797,5.065c3.065,2.871,3.61,8.101,0.351,10.748
		C315.818,254.022,311.424,251.779,309.957,250.405z"/>
</g>
<g>
	<circle style="fill:#3E3D42;" cx="178.953" cy="292.614" r="14.008"/>
	<circle style="fill:#3E3D42;" cx="334.8" cy="292.614" r="14.008"/>
</g>
<path d="M332.426,342.429c-3.664-2.052-8.298-0.744-10.349,2.919c-1.301,2.323-3.739,3.765-6.363,3.765H196.641
	c-2.742,0-5.308-1.609-6.539-4.099c-1.86-3.764-6.421-5.31-10.185-3.448c-3.764,1.86-5.308,6.421-3.448,10.185
	c3.773,7.636,11.692,12.57,20.172,12.57h119.073c8.122,0,15.643-4.422,19.631-11.541
	C337.397,349.115,336.09,344.482,332.426,342.429z"/>
<path d="M136.109,143.757l3.075,4.454c1.476,2.137,6.648,4.597,10.577,1.937c3.478-2.353,4.323-7.121,1.937-10.577l-3.082-4.465
	c-2.39-3.453-7.125-4.318-10.579-1.927C134.584,135.566,133.72,140.303,136.109,143.757z"/>
<path d="M511.11,267.478c-3.6-9.073-15.77-8.857-20.364-8.787c-7.654,0.131-17.451,1.417-28.794,2.908
	c-2.547,0.335-5.179,0.679-7.86,1.021c2.472-0.317,4.423-10.33-4.747-11.753c2.564-3.196,5.027-6.457,7.376-9.742l7.604,1.573
	c5.596,0.761,8.243-2.313,8.987-5.906c0.851-4.113-1.793-8.135-5.906-8.987l-1.681-0.348c2.357-3.907,4.499-7.767,6.391-11.516
	l6.064,1.255c5.427,1.171,8.243-2.313,8.987-5.906c0.851-4.113-1.793-8.135-5.906-8.987l-2.997-0.62
	c2.102-6.068,5.596-17.787-0.898-25.658c-6.213-7.531-18.008-1.703-22.177,0.234c-6.942,3.226-59.159,33.973-59.704,34.279
	c1.042-2.87,2.007-5.71,2.889-8.511h8.555c4.199,0,7.604-3.403,7.604-7.604s-3.404-7.604-7.604-7.604h-3.809
	c1.276-4.681,2.397-9.396,3.347-14.075h6.339c4.199,0,7.604-3.403,7.604-7.604s-3.404-7.604-7.604-7.604h-3.819
	c0.612-4.789,1.028-9.437,1.238-13.856h3.595c4.199,0,7.604-3.403,7.604-7.604c0-4.2-3.404-7.604-7.604-7.604h-3.77
	c-0.54-6.433-2.227-19.6-11.248-23.16c-9.08-3.583-17.148,5.76-20.17,9.222c-5.034,5.767-54.413,73.106-63.666,83.276
	c-18.215-10.238-38.297-15.655-58.966-15.655c-20.668,0-40.75,5.417-58.964,15.654c-9.246-10.162-29.543-36.092-32.349-39.894
	c-2.494-3.379-7.256-4.096-10.633-1.602c-3.379,2.494-4.096,7.255-1.602,10.633c2.891,3.916,22.768,29.369,31.623,39.207
	c-16.617,11.368-24.365,22.6-25.835,24.377c-7.36-3.057-14.355-6.157-20.947-9.287c-3.82-8.466-22.47-51.795-18.771-100.193
	c1.053,0.926,2.584,2.469,4.695,5.026c2.672,3.236,7.465,3.696,10.705,1.022c3.238-2.673,3.695-7.466,1.022-10.705
	c-3.633-4.399-12.117-14.665-21.746-11.08c-9.104,3.39-10.707,16.727-11.247,23.16h-3.771c-4.199,0-7.604,3.403-7.604,7.604
	c0,4.2,3.404,7.604,7.604,7.604h3.595c0.21,4.419,0.626,9.067,1.238,13.856h-3.819c-4.199,0-7.604,3.403-7.604,7.604
	s3.404,7.604,7.604,7.604h6.34c0.95,4.679,2.07,9.394,3.347,14.075h-3.809c-4.199,0-7.604,3.403-7.604,7.604
	s3.404,7.604,7.604,7.604h8.555c0.881,2.801,1.847,5.64,2.889,8.511c-0.544-0.306-52.762-31.053-59.704-34.279
	c-4.169-1.936-15.105-6.961-22.177-0.235c-8.101,7.704-3.001,19.591-0.898,25.659l-2.997,0.62c-4.112,0.852-6.711,4.865-5.906,8.987
	c1.532,7.837,8.468,6.013,8.987,5.906l6.064-1.255c1.892,3.749,4.035,7.61,6.391,11.516l-1.681,0.348
	c-4.112,0.852-6.799,4.883-5.906,8.987c1.616,7.427,8.467,6.013,8.987,5.906l7.604-1.573c2.348,3.285,4.812,6.546,7.376,9.742
	c-4.01,0.926-6.55,7.04-4.85,11.74c-2.645-0.338-28.897-3.785-36.552-3.915c-4.591-0.075-16.764-0.286-20.364,8.787
	c-1.312,3.158-1.174,6.744,0.412,10.665c3.05,7.537,11.766,16.87,23.554,26.052l-1.799,2.51c-2.446,3.414-1.794,8.362,1.753,10.61
	c5.358,3.394,9.124,0.319,10.61-1.753l1.813-2.531c3.84,2.522,7.864,4.978,12.006,7.329l-2.524,3.524
	c-2.446,3.414-1.828,8.416,1.753,10.61c5.274,3.232,9.125,0.319,10.61-1.753l3.776-5.27c3.085,1.473,6.199,2.868,9.321,4.167
	c1.119,0.519,2.242,1.019,3.366,1.515c0,0-4.816,7.127,1.297,11.246c5.723,3.857,9.124,0.319,10.61-1.753l2.648-3.696
	c4.552,1.636,9.045,3.105,13.398,4.409c0,0-4.381,6.806,1.512,10.945c4.14,2.909,9.124,0.319,10.61-1.753l3.562-4.971
	c3.044,0.73,5.935,1.376,8.638,1.943c5.477,20.179,17.809,34.731,37.283,44.128c25.273,12.195,60.136,13.84,90.906,13.84
	s65.634-1.644,90.906-13.84c19.474-9.397,31.806-23.949,37.283-44.128c2.703-0.567,5.594-1.212,8.638-1.943l3.562,4.971
	c4.083,5.217,9.192,2.598,10.61,1.753c6.653-3.97,1.512-10.945,1.512-10.945c4.353-1.304,8.846-2.772,13.398-4.409l2.648,3.696
	c4.303,5.491,9.256,2.697,10.61,1.753c6.027-4.203,1.297-11.246,1.297-11.246c1.123-0.496,2.247-0.996,3.366-1.515
	c3.123-1.299,6.236-2.694,9.321-4.167l3.776,5.27c4.575,5.49,9.268,2.714,10.61,1.753c3.414-2.445,4.198-7.196,1.753-10.61
	l-2.524-3.524c4.143-2.351,8.165-4.807,12.006-7.329l1.813,2.531c4.238,5.146,9.268,2.714,10.61,1.753
	c3.414-2.445,4.198-7.196,1.753-10.61l-1.799-2.51c11.789-9.182,20.505-18.516,23.554-26.052
	C512.284,274.223,512.423,270.637,511.11,267.478z M466.118,188.168c-13.18,42.62-47.145,73.946-51.627,78.243
	c-11.75,0.806-24.645,1.04-38.5,0.705c-3.544-8.342-7.868-16.39-12.909-24.001C393.935,229.52,460.288,189.95,466.118,188.168z
	 M393.456,120.979c6.51,39.854-14.928,91.801-18.748,100.265c-6.592,3.13-13.586,6.23-20.947,9.287
	c-1.47-1.776-13.105-16.473-25.839-24.38C336.782,196.31,388.851,124.976,393.456,120.979z M107.483,222.905
	c12.02,6.857,25.93,13.637,41.438,20.21c-5.041,7.611-9.365,15.66-12.909,24.001c-13.855,0.336-26.75,0.1-38.5-0.705
	c-4.482-4.297-8.665-8.637-12.42-12.937c-0.069-0.079-0.14-0.157-0.212-0.233c-24.632-25.942-37.953-55.287-38.994-65.073
	C51.715,189.951,95.438,216.671,107.483,222.905z M16.1,274.011c6.057-0.738,20.246,1.126,31.969,2.666
	c11.669,1.534,61.94,6.745,82.412,5.753c-8.884,23.128-5.805,47.391-5.49,50.901C111.534,330.216,48.673,314.175,16.1,274.011z
	 M256.001,392.285c-73.647,0-116.284-11.434-116.284-69.88c0-66.61,54.338-125.039,116.284-125.039s116.284,58.429,116.284,125.039
	C372.285,380.851,329.648,392.285,256.001,392.285z M433.854,317.655c-0.097,0.04-0.194,0.082-0.29,0.127
	c-16.174,7.514-33.096,12.435-46.553,15.549c0.314-3.51,0.482-7.147,0.482-10.926c0-13.441-2.063-26.937-5.971-39.975
	c29.934-0.204,70.743-4.219,82.412-5.753c11.723-1.54,25.916-3.403,31.969-2.666C490.977,282.531,466.891,303.944,433.854,317.655z"
	/>
</svg>